<?xml version="1.0" encoding="utf-8"?>
<svg version="1.1" xmlns:xlink="http://www.w3.org/1999/xlink" width="19px" height="19px" viewBox="237 300  19 19" xmlns="http://www.w3.org/2000/svg">
  <path d="M 246.5 300  C 251.82 300  256 304.18  256 309.5  C 256 314.82  251.82 319  246.5 319  C 241.18 319  237 314.82  237 309.5  C 237 304.18  241.18 300  246.5 300  Z " fill-rule="nonzero" fill="#ffffff" stroke="none" />
  <path d="M 246.5 300.5  C 251.54 300.5  255.5 304.46  255.5 309.5  C 255.5 314.54  251.54 318.5  246.5 318.5  C 241.46 318.5  237.5 314.54  237.5 309.5  C 237.5 304.46  241.46 300.5  246.5 300.5  Z " stroke-width="1" stroke="#f59a23" fill="none" />
  <path d="M 246.5 314.25  C 243.84 314.25  241.75 312.16  241.75 309.5  C 241.75 306.84  243.84 304.75  246.5 304.75  C 249.16 304.75  251.25 306.84  251.25 309.5  C 251.25 312.16  249.16 314.25  246.5 314.25  " fill-rule="nonzero" fill="#f59a23" stroke="none" />
</svg>