<?xml version="1.0" encoding="utf-8"?>
<svg version="1.1" xmlns:xlink="http://www.w3.org/1999/xlink" width="19px" height="19px" viewBox="237 248  19 19" xmlns="http://www.w3.org/2000/svg">
  <path d="M 246.5 248  C 251.82 248  256 252.18  256 257.5  C 256 262.82  251.82 267  246.5 267  C 241.18 267  237 262.82  237 257.5  C 237 252.18  241.18 248  246.5 248  Z " fill-rule="nonzero" fill="#ffffff" stroke="none" />
  <path d="M 246.5 248.5  C 251.54 248.5  255.5 252.46  255.5 257.5  C 255.5 262.54  251.54 266.5  246.5 266.5  C 241.46 266.5  237.5 262.54  237.5 257.5  C 237.5 252.46  241.46 248.5  246.5 248.5  Z " stroke-width="1" stroke="#f59a23" fill="none" />
  <path d="M 246.5 262.25  C 243.84 262.25  241.75 260.16  241.75 257.5  C 241.75 254.84  243.84 252.75  246.5 252.75  C 249.16 252.75  251.25 254.84  251.25 257.5  C 251.25 260.16  249.16 262.25  246.5 262.25  " fill-rule="nonzero" fill="#f59a23" stroke="none" />
</svg>