<?xml version="1.0" encoding="utf-8"?>
<svg version="1.1" xmlns:xlink="http://www.w3.org/1999/xlink" width="19px" height="19px" viewBox="237 296  19 19" xmlns="http://www.w3.org/2000/svg">
  <path d="M 246.5 296  C 251.82 296  256 300.18  256 305.5  C 256 310.82  251.82 315  246.5 315  C 241.18 315  237 310.82  237 305.5  C 237 300.18  241.18 296  246.5 296  Z " fill-rule="nonzero" fill="#ffffff" stroke="none" />
  <path d="M 246.5 296.5  C 251.54 296.5  255.5 300.46  255.5 305.5  C 255.5 310.54  251.54 314.5  246.5 314.5  C 241.46 314.5  237.5 310.54  237.5 305.5  C 237.5 300.46  241.46 296.5  246.5 296.5  Z " stroke-width="1" stroke="#f59a23" fill="none" />
  <path d="M 246.5 310.25  C 243.84 310.25  241.75 308.16  241.75 305.5  C 241.75 302.84  243.84 300.75  246.5 300.75  C 249.16 300.75  251.25 302.84  251.25 305.5  C 251.25 308.16  249.16 310.25  246.5 310.25  " fill-rule="nonzero" fill="#f59a23" stroke="none" />
</svg>