<?xml version="1.0" encoding="utf-8"?>
<svg version="1.1" xmlns:xlink="http://www.w3.org/1999/xlink" width="19px" height="19px" viewBox="725 196  19 19" xmlns="http://www.w3.org/2000/svg">
  <path d="M 734.5 196  C 739.82 196  744 200.18  744 205.5  C 744 210.82  739.82 215  734.5 215  C 729.18 215  725 210.82  725 205.5  C 725 200.18  729.18 196  734.5 196  Z " fill-rule="nonzero" fill="#ffffff" stroke="none" />
  <path d="M 734.5 196.5  C 739.54 196.5  743.5 200.46  743.5 205.5  C 743.5 210.54  739.54 214.5  734.5 214.5  C 729.46 214.5  725.5 210.54  725.5 205.5  C 725.5 200.46  729.46 196.5  734.5 196.5  Z " stroke-width="1" stroke="#333333" fill="none" />
  <path d="M 734.5 210.25  C 731.84 210.25  729.75 208.16  729.75 205.5  C 729.75 202.84  731.84 200.75  734.5 200.75  C 737.16 200.75  739.25 202.84  739.25 205.5  C 739.25 208.16  737.16 210.25  734.5 210.25  " fill-rule="nonzero" fill="#333333" stroke="none" />
</svg>